<svg width="45" height="50" fill="none" xmlns="http://www.w3.org/2000/svg"><path d="M6 0l7.3 7h20.4v19.2l7.3 7V0H6z" fill="#AFB1B8"/><path d="M0 6.6v32.2h34V26L13.5 6.6H0zm27.5 27.5H5.4V12.5h1.5v20.1h20.6v1.5zM9.8 44.8l.8-1.7h.7L10 45.3v1.4h-.6v-1.4l-1.2-2.2H9l.8 1.7zm3.5 1h-1.4l-.3.9H11l1.3-3.6h.6l1.3 3.6h-.6l-.3-.9zm-1.2-.5h1l-.5-1.4-.5 1.4zm3.6.4c0-.2 0-.3.2-.5 0-.1.2-.3.5-.4l-.3-.5V44c0-.3 0-.5.2-.7.2-.2.4-.2.7-.2.2 0 .4 0 .6.2.2.1.3.3.3.5s0 .3-.2.5l-.3.3-.3.2.7.8.2-.6h.5c0 .4-.1.8-.3 1l.5.7H18l-.2-.3-.9.3c-.4 0-.6 0-.8-.3a1 1 0 01-.4-.7zm1.2.5c.2 0 .4 0 .6-.2l-.8-.9c-.3.2-.4.4-.4.6 0 .1 0 .3.2.4l.4.1zm-.3-2.3l.2.6.3-.2.2-.4v-.3h-.6l-.1.3zm6.4 1.6c0 .4-.1.7-.4.9-.2.2-.5.3-1 .3-.2 0-.5 0-.7-.2-.2-.1-.4-.3-.5-.6a2 2 0 01-.2-.8v-.4c0-.3 0-.6.2-.9a1.3 1.3 0 011.3-.7c.4 0 .7 0 1 .3.2.2.3.5.3.9h-.6c0-.3 0-.5-.2-.6l-.5-.1c-.3 0-.5 0-.6.2-.2.2-.3.5-.3 1v.2l.2.9.6.3c.3 0 .5 0 .6-.2.1 0 .2-.2.2-.5h.6zm3.4-.5l-.1.9c-.2.2-.3.5-.6.6l-.7.2c-.3 0-.6 0-.8-.2-.2-.1-.4-.3-.5-.6-.2-.3-.2-.6-.2-1v-.1c0-.4 0-.7.2-1 0-.2.3-.4.5-.5.2-.2.5-.2.8-.2.2 0 .5 0 .7.2.3.1.4.3.5.6.2.2.2.5.2.9v.2zm-.6-.2c0-.4 0-.7-.2-1a.7.7 0 00-.6-.2c-.3 0-.5 0-.7.3l-.2.9v.2c0 .4 0 .7.2.9.2.2.4.3.7.3l.6-.3.2-1v-.1z" fill="#AFB1B8"/></svg>